<?xml version="1.0" standalone="no"?>
<!DOCTYPE svg PUBLIC "-//W3C//DTD SVG 20010904//EN"
 "http://www.w3.org/TR/2001/REC-SVG-20010904/DTD/svg10.dtd">
<svg version="1.0" xmlns="http://www.w3.org/2000/svg"
 width="310.000000pt" height="310.000000pt" viewBox="0 0 310.000000 310.000000"
 preserveAspectRatio="xMidYMid meet">
<metadata>
Created by potrace 1.11, written by Peter Selinger 2001-2013
</metadata>
<g transform="translate(0.000000,310.000000) scale(0.100000,-0.100000)"
fill="#000000" stroke="none">
<path d="M825 3094 c-139 -13 -234 -28 -293 -45 -214 -61 -343 -191 -422 -425
-61 -180 -86 -362 -100 -747 -29 -752 63 -1235 287 -1512 142 -175 336 -277
623 -324 303 -51 1058 -53 1365 -5 488 78 698 310 779 864 40 275 46 795 11
1090 -61 515 -215 790 -530 945 -161 80 -305 116 -570 145 -94 11 -1064 22
-1150 14z m889 -382 c91 -42 149 -100 194 -190 35 -72 37 -81 37 -172 0 -91
-2 -100 -37 -172 -45 -91 -103 -147 -196 -191 -60 -28 -77 -32 -157 -32 -142
0 -243 49 -326 159 -169 224 -48 556 228 626 71 18 186 5 257 -28z m-19 -1074
c56 -25 55 -18 55 -648 l0 -582 -29 -29 -29 -29 -142 0 -142 0 -29 29 -29 29
0 584 c1 624 0 616 51 644 31 17 257 19 294 2z"/>
</g>
</svg>
