<?xml version="1.0" encoding="UTF-8"?>
<svg width="222px" height="60px" viewBox="0 0 222 60" version="1.1" xmlns="http://www.w3.org/2000/svg" xmlns:xlink="http://www.w3.org/1999/xlink">
    <!-- Generator: Sketch 47.1 (45422) - http://www.bohemiancoding.com/sketch -->
    <title>Include_Choir_Logo</title>
    <desc>Created with Sketch.</desc>
    <defs>
        <path d="M2.91431,14.1098 C1.35162,14.1098 -7.10542736e-15,15.29242 -7.10542736e-15,16.85516 C-7.10542736e-15,18.41797 1.35162,19.60064 2.91431,19.60064 C4.51941,19.60064 5.7865,18.41796 5.7865,16.85516 C5.7865,15.29242 4.51941,14.1098 2.91431,14.1098 Z M2.93671,24.62695 C1.75391,24.62695 1,25.64062 1,26.82324 L1,42.57782 C1,43.76044 1.75391,44.77429 2.93671,44.77429 C4.20374,44.77429 5,43.76044 5,42.57782 L5,26.82324 C5,25.64062 4.20374,24.62695 2.93671,24.62695 Z M20.26083,24.41571 C18.06442,24.41571 15,25.51392 14,27.7948 L14,26.82324 C14,25.64062 13.24597,24.62695 12.06335,24.62695 C10.79614,24.62695 10,25.64062 10,26.82324 L10,42.57782 C10,43.76044 10.75403,44.77429 11.93665,44.77429 C13.20368,44.77429 14,43.76044 14,42.57782 L14,33.96149 C14,30.07563 16.38812,28.68177 18.96466,28.68177 C21.49884,28.68177 23,30.4557 23,33.58143 L23,42.57783 C23,43.76045 24.25394,44.7743 25.43661,44.7743 C26.70376,44.7743 28,43.76045 28,42.57783 L28,33.07435 C28,27.49915 25.03366,24.41571 20.26083,24.41571 Z M46,17.95343 L46,42.57782 C46,43.76044 47.25403,44.77429 48.43665,44.77429 C49.7038,44.77429 51,43.76044 51,42.57782 L51,17.95343 C51,16.77063 49.7038,15.75702 48.43665,15.75702 C47.25403,15.75702 46,16.77063 46,17.95343 Z M70.93665,44.77429 C72.20368,44.77429 73,43.76044 73,42.57782 L73,26.56671 C73,25.38409 72.24597,24.37042 71.06329,24.37042 C69.79614,24.37042 69,25.38409 69,26.56671 L69,35.43957 C69,39.32543 66.61179,40.71929 64.03543,40.71929 C61.50107,40.7193 60,38.94537 60,35.81995 L60,26.56672 C60,25.3841 58.74597,24.37043 57.56335,24.37043 C56.29626,24.37042 55,25.38409 55,26.56671 L55,36.32672 C55,41.90198 57.96634,44.98553 62.73911,44.98553 C64.9354,44.98553 68,43.88714 69,41.60644 L69,42.57781 C69,43.76044 69.75397,44.77429 70.93665,44.77429 Z M96.06332,13.89856 C94.7963,13.89856 94,14.91223 94,16.09503 L94,27.66797 C93,25.51392 90.12735,24.41571 87.33957,24.41571 C81.97543,24.41571 77.48378,28.38611 77.48378,34.72162 C77.48378,40.93054 82.06712,44.98554 87.38914,44.98554 C90.05003,44.98554 93,43.80286 94,41.69098 L94,42.57782 C94,43.76044 94.7963,44.77429 96.06332,44.77429 C97.246,44.77429 98,43.76044 98,42.57782 L98,16.09503 C98,14.91223 97.246,13.89856 96.06332,13.89856 Z M87.85968,40.76172 C84.56519,40.76172 81.90411,38.26947 81.90411,34.63733 C81.90411,31.00488 84.56518,28.63947 87.85968,28.63947 C90.81628,28.63947 93.89954,30.75123 93.89954,34.63733 C93.89954,38.48071 91.06964,40.76172 87.85968,40.76172 Z M122.01453,34.13586 C121.8454,28.096 117.62165,24.35516 112.1308,24.35516 C106.51319,24.35516 101.99378,28.35583 101.99378,34.60705 C101.99378,40.85815 106.51319,44.97039 112.1308,44.97039 C115.04511,44.97039 117.91742,43.92199 119.90265,41.85223 C120.66278,41.04968 120.62067,39.74414 119.81806,39.11071 C118.93098,38.39269 117.74836,38.69012 117.03034,39.28143 C115.5943,40.46405 114.41169,41.06192 112.34192,41.06192 C109.17426,41.06192 106.72443,39 106.30206,36 L120.02935,36 C121.08527,36 122.01453,35.27637 122.01453,34.13586 Z M106.30206,33 C106.72442,30 109.08972,28.14276 112.1308,28.14276 C115.08759,28.14276 117.32611,30 117.74835,33 L106.30206,33 Z M78.37646,50.23987 C73.74047,54.01996 67.88671,56.10181 61.89343,56.10181 C57.20544,56.10181 52.60913,54.84522 48.60046,52.46814 C48.55755,52.44251 48.51355,52.41834 48.46844,52.39569 C48.00292,52.1629 47.48706,52.13318 47.02404,52.27606 L36.66821,55.22082 L39.6145,44.79815 C39.76739,44.25689 39.67694,43.68737 39.3869,43.22778 C37.03485,39.23529 35.79187,34.66235 35.79187,29.99994 C35.79187,15.60742 47.50092,3.81683 61.89343,3.81683 C69.65222,3.81683 76.90491,7 81.83905,13 L75.81573,13 C74.79925,13 73.97534,13.98352 73.97534,15 C73.97534,16.01648 74.79925,17 75.81573,17 L85.59997,17 C86.61646,17 87,16.01959 87,15.00311 L87,5.21887 C87,4.20239 86.51648,3.37848 85.5,3.37848 C84.48352,3.37848 84,4.20239 84,5.21887 L84,9.46039 C78,3.46606 70.39267,0 62.01364,0 C45.47165,0 31.95372,13.45795 31.95372,29.99994 C31.95372,35.09546 33.21664,40.09973 35.67001,44.52734 L31.98219,57.52038 C31.79005,58.20037 31.97321,58.93078 32.47315,59.43017 C32.84364,59.79993 33.33725,60 33.84665,60 C34.02445,60 34.20183,59.97552 34.37773,59.92542 L47.34084,56.23877 C51.77553,58.70184 56.788,59.9997 61.8939,59.9997 C68.78227,59.9997 75.51055,57.60676 80.84008,53.26099 C81.67431,52.58069 81.79913,51.35297 81.11883,50.51862 C80.43865,49.68481 79.21039,49.55933 78.37646,50.23987 Z" id="path-1"></path>
    </defs>
    <g id="Page-1" stroke="none" stroke-width="1" fill="none" fill-rule="evenodd">
        <g id="Include_Choir_Logo">
            <g id="Layer_3" transform="translate(133.000000, 0.000000)" fill-rule="nonzero">
                <path d="M10.8811644,24.1389831 C13.1976027,24.1389831 15.2702055,24.779661 16.9770548,25.9694915 C17.9219178,26.6101695 18.135274,27.8610169 17.4952055,28.9288136 C16.8856164,29.9050847 15.3921233,29.9661017 14.4777397,29.3864407 C13.4414384,28.7762712 12.1613014,28.4101695 10.8811644,28.4101695 C7.55890411,28.4101695 4.60239726,30.8508475 4.60239726,34.5728814 C4.60239726,38.2949153 7.55890411,40.6745763 10.8811644,40.6745763 C12.1613014,40.6745763 13.4414384,40.2779661 14.4777397,39.6983051 C15.4226027,39.1491525 16.9160959,39.179661 17.4952055,40.1559322 C18.135274,41.2237288 17.9219178,42.4745763 16.9770548,43.1152542 C15.2702055,44.3050847 13.1671233,44.9457627 10.8811644,44.9457627 C5.1510274,44.9457627 0.243835616,40.8881356 0.243835616,34.5728814 C0.243835616,28.2576271 5.18150685,24.1389831 10.8811644,24.1389831 Z" id="Shape" fill="#0C7AB7"></path>
                <path d="M25.6027397,27.5864407 C26.8219178,25.1457627 29.8089041,24.1389831 31.8815068,24.1389831 C36.9715753,24.1389831 39.9280822,27.4644068 39.9280822,33.1389831 L39.9280822,42.5050847 C39.9280822,43.6949153 39.0136986,44.7322034 37.7335616,44.7322034 C36.544863,44.7322034 35.6609589,43.6949153 35.6609589,42.5050847 L35.6609589,33.4135593 C35.6609589,30.3016949 33.6493151,28.4711864 31.1804795,28.4711864 C28.6506849,28.4711864 25.6027397,29.8745763 25.6027397,33.8101695 L25.6027397,42.5355932 C25.6027397,43.7254237 24.6883562,44.7627119 23.4082192,44.7627119 C22.2195205,44.7627119 21.3356164,43.7254237 21.3356164,42.5355932 L21.3356164,15.7186441 C21.3356164,14.5288136 22.25,13.4915254 23.530137,13.4915254 C24.7188356,13.4915254 25.6027397,14.5288136 25.6027397,15.7186441 L25.6027397,27.5864407 Z" id="Shape" fill="#0C7AB7"></path>
                <path d="M53.1561644,52.7864407 C47.5479452,52.7864407 43.7684932,49.0644068 43.7684932,43.5423729 C43.7684932,40.1254237 43.7684932,31.0949153 53.1561644,31.0949153 C62.635274,31.0949153 62.635274,40.4610169 62.635274,43.5423729 C62.635274,49.0644068 58.8253425,52.7864407 53.1561644,52.7864407 Z M53.1561644,35.3661017 C49.3462329,35.3661017 48.0356164,37.440678 48.0356164,43.5423729 C48.0356164,47.8745763 51.2359589,48.5152542 53.1561644,48.5152542 C55.1068493,48.5152542 58.3681507,47.8745763 58.3681507,43.5423729 C58.3681507,37.5016949 56.9965753,35.3661017 53.1561644,35.3661017 Z" id="Shape" fill="#D45219"></path>
                <path d="M69.7979452,4.48474576 L69.7979452,17.5728814 L71.6267123,17.5728814 L71.6267123,5.67457627 C71.6267123,5.49152542 71.6876712,5.33898305 71.8400685,5.2779661 L77.5092466,3.02033898 C77.7835616,2.89830508 77.9969178,3.11186441 77.9969178,3.41694915 L77.9969178,14.2474576 L79.8256849,14.2474576 L79.8256849,2.10508475 L79.8256849,0.945762712 C79.8256849,0.488135593 79.3989726,0.183050847 78.9722603,0.33559322 L70.3160959,3.66101695 C70.0113014,3.81355932 69.7979452,4.14915254 69.7979452,4.48474576 Z" id="Shape" fill="#D45219"></path>
                <path d="M68.639726,14.7355932 C70.255137,14.7355932 71.535274,15.9254237 71.535274,17.5118644 C71.535274,19.0983051 70.255137,20.2881356 68.639726,20.2881356 C67.0547945,20.2881356 65.6832192,19.0983051 65.6832192,17.5118644 C65.6832192,15.9254237 67.0547945,14.7355932 68.639726,14.7355932 Z" id="Shape" fill="#D45219"></path>
                <path d="M76.9910959,11.379661 C78.6065068,11.379661 79.8866438,12.5694915 79.8866438,14.1559322 C79.8866438,15.7423729 78.6065068,16.9322034 76.9910959,16.9322034 C75.4061644,16.9322034 74.034589,15.7423729 74.034589,14.1559322 C74.0650685,12.5694915 75.4061644,11.379661 76.9910959,11.379661 Z" id="Shape" fill="#D45219"></path>
                <path d="M47.2126712,28.2881356 C46.115411,28.2881356 45.0181507,27.9525424 44.0428082,27.3118644 C43.4941781,26.9457627 43.3417808,26.1830508 43.7075342,25.6338983 C44.0732877,25.0847458 44.835274,24.9322034 45.3839041,25.2983051 C46.6030822,26.0915254 48.1270548,26.0305085 49.285274,25.1152542 C49.8034247,24.6881356 50.5958904,24.779661 50.9921233,25.3288136 C51.4188356,25.8474576 51.3273973,26.640678 50.7787671,27.0372881 C49.7119863,27.8610169 48.4623288,28.2881356 47.2126712,28.2881356 Z" id="Shape" fill="#D45219"></path>
                <path d="M59.0996575,28.2881356 C57.85,28.2881356 56.6003425,27.8610169 55.5335616,27.0372881 C55.015411,26.6101695 54.9239726,25.8474576 55.3202055,25.3288136 C55.7164384,24.8101695 56.5089041,24.7186441 57.0270548,25.1152542 C58.185274,26.0305085 59.7092466,26.0915254 60.9284247,25.2983051 C61.4770548,24.9322034 62.2390411,25.0847458 62.6047945,25.6338983 C62.9705479,26.1830508 62.8181507,26.9457627 62.2695205,27.3118644 C61.2941781,27.9830508 60.1969178,28.2881356 59.0996575,28.2881356 Z M70.7123288,26.579661 L70.7123288,42.5050847 C70.7123288,43.6949153 69.7979452,44.7322034 68.5178082,44.7322034 C67.3291096,44.7322034 66.4452055,43.6949153 66.4452055,42.5050847 L66.4452055,26.579661 C66.4452055,25.3898305 67.3291096,24.3525424 68.5178082,24.3525424 C69.7979452,24.3525424 70.7123288,25.3898305 70.7123288,26.579661 Z M79.8561644,37.3186441 L79.8561644,42.4745763 C79.8561644,43.6644068 78.9417808,44.7016949 77.6616438,44.7016949 C76.4729452,44.7016949 75.5890411,43.6644068 75.5890411,42.4745763 L75.5890411,26.579661 C75.5890411,25.3898305 76.4729452,24.3525424 77.6616438,24.3525424 C78.9417808,24.3525424 79.8561644,25.3898305 79.8561644,26.579661 L79.8561644,29.1423729 C80.7705479,25.6033898 82.8431507,24.1389831 85.3119863,24.1389831 C85.9520548,24.1389831 86.5921233,24.1694915 87.2017123,24.3220339 C88.2989726,24.5661017 89.0304795,25.6949153 88.7866438,26.8542373 C88.390411,28.7762712 86.4702055,28.3186441 85.1900685,28.3186441 C81.4410959,28.2881356 79.8561644,32.040678 79.8561644,37.3186441 Z" id="Shape" fill="#D45219"></path>
            </g>
            <g id="Shape-+-Shape-+-Shape-+-Shape-Mask">
                <mask id="mask-2" fill="white">
                    <use xlink:href="#path-1"></use>
                </mask>
                <use id="Mask" fill="#0879B5" fill-rule="nonzero" xlink:href="#path-1"></use>
                <path d="M112.36787,38.7436 C97.68888,41.77364 89.54721,35.58202 87.4289,23.53194 C85.31065,11.48189 96.41545,6.34153 109.35763,5.58665 C122.2998,4.8318 132.51119,14.67071 134.2966,20.79831 C136.08208,26.92591 127.04698,35.71358 112.36787,38.7436 Z" id="Shape" fill="#803FC3" mask="url(#mask-2)"></path>
                <path d="M106.62578,30.04428 C121.93646,27.88952 129.6967,34.49749 130.74541,46.56428 C131.79404,58.63104 119.94664,63.08428 106.62578,63.08428 C93.30486,63.08428 83.76451,52.7413 82.5061,46.56428 C81.24769,40.38724 91.31501,32.19907 106.62578,30.04428 Z" id="Shape" fill="#D45219" mask="url(#mask-2)"></path>
                <path d="M44.75715,-18.96566 C61.26494,-22.38691 69.63183,-11.89504 70.76247,7.2641 C71.89321,26.42318 59.1195,33.49382 44.75715,33.49382 C30.39489,33.49382 20.10871,17.07169 18.75186,7.2641 C17.3951,-2.54356 28.24949,-15.54438 44.75715,-18.96566 Z" id="Shape" fill="#F69516" mask="url(#mask-2)"></path>
                <path d="M1.39986,30.22913 C12.31281,28.67104 17.84405,33.44912 18.5915,42.17434 C19.33895,50.89956 10.89456,54.11958 1.39986,54.11958 C-8.09484,54.11958 -14.89484,46.64082 -15.79182,42.17434 C-16.68876,37.70786 -9.51313,31.78716 1.39986,30.22913 Z" id="Shape" fill="#5FB346" mask="url(#mask-2)"></path>
            </g>
        </g>
    </g>
</svg>