<?xml version="1.0" encoding="UTF-8"?>
<svg width="193px" height="60px" viewBox="0 0 193 60" version="1.1" xmlns="http://www.w3.org/2000/svg" xmlns:xlink="http://www.w3.org/1999/xlink">
    <!-- Generator: Sketch 47.1 (45422) - http://www.bohemiancoding.com/sketch -->
    <title>Include.org_Logo</title>
    <desc>Created with Sketch.</desc>
    <defs>
        <path d="M2.78343395,24.6030151 C1.61618746,24.6030151 0.598587946,25.6281407 0.598587946,26.8040201 L0.598587946,42.5427136 C0.598587946,43.718593 1.61618746,44.7437186 2.78343395,44.7437186 C4.04046864,44.7437186 5.08799754,43.718593 5.08799754,42.5427136 L5.08799754,26.8040201 C5.08799754,25.6281407 4.04046864,24.6030151 2.78343395,24.6030151 Z M2.90315154,14.1105528 C1.34682288,14.1105528 0,15.2864322 0,16.8542714 C0,18.3919598 1.34682288,19.5979899 2.90315154,19.5979899 C4.4894096,19.5979899 5.74644429,18.4221106 5.74644429,16.8542714 C5.74644429,15.2864322 4.4894096,14.1105528 2.90315154,14.1105528 Z M19.7833316,24.3919598 C17.5984856,24.3919598 14.9646987,25.4773869 13.7675228,27.7688442 L13.7675228,26.8040201 C13.7675228,25.6281407 12.8995702,24.6030151 11.7323237,24.6030151 C10.4752891,24.6030151 9.57740714,25.6281407 9.57740714,26.8040201 L9.57740714,42.5427136 C9.57740714,43.718593 10.4453597,44.7437186 11.6126062,44.7437186 C12.8696408,44.7437186 13.7675228,43.718593 13.7675228,42.5427136 L13.7675228,33.919598 C13.7675228,30.0301508 16.3115215,28.6432161 18.8555203,28.6432161 C21.3695897,28.6432161 23.0456359,30.4221106 23.0456359,33.5276382 L23.0456359,42.5125628 C23.0456359,43.6884422 23.9135885,44.7135678 25.080835,44.7135678 C26.3378696,44.7135678 27.2357516,43.6884422 27.2357516,42.5125628 L27.2357516,33.0150754 C27.2357516,27.4673367 24.5121764,24.3919598 19.7833316,24.3919598 Z M45.7919779,17.9396985 L45.7919779,42.5427136 C45.7919779,43.718593 46.8095774,44.7437186 47.9768239,44.7437186 C49.2338586,44.7437186 50.2813875,43.718593 50.2813875,42.5427136 L50.2813875,17.9396985 C50.2813875,16.7638191 49.2338586,15.7386935 47.9768239,15.7386935 C46.8095774,15.7386935 45.7919779,16.7638191 45.7919779,17.9396985 Z M70.2742249,44.7437186 C71.5312596,44.7437186 72.4291415,43.718593 72.4291415,42.5427136 L72.4291415,26.5628141 C72.4291415,25.3869347 71.561189,24.361809 70.3939425,24.361809 C69.1369078,24.361809 68.2390259,25.3869347 68.2390259,26.5628141 L68.2390259,35.4271357 C68.2390259,39.3165829 65.6950271,40.7035176 63.1510283,40.7035176 C60.636959,40.7035176 58.9609127,38.9246231 58.9609127,35.8190955 L58.9609127,26.5628141 C58.9609127,25.3869347 58.0929602,24.361809 56.9257137,24.361809 C55.668679,24.361809 54.7707971,25.3869347 54.7707971,26.5628141 L54.7707971,36.3316583 C54.7707971,41.9095477 57.4943723,44.9849246 62.223217,44.9849246 C64.408063,44.9849246 67.04185,43.8994975 68.2390259,41.6080402 L68.2390259,42.5728643 C68.2390259,43.718593 69.1069784,44.7437186 70.2742249,44.7437186 Z M95.3849893,13.8994975 C94.1279546,13.8994975 93.0804257,14.9246231 93.0804257,16.1005025 L93.0804257,27.678392 C91.8832498,25.5376884 89.3093216,24.4221106 86.555817,24.4221106 C81.2283843,24.4221106 76.8287629,28.4020101 76.8287629,34.7336683 C76.8287629,40.9447236 81.3181725,44.9849246 86.5857464,44.9849246 C89.2195334,44.9849246 91.8832498,43.8090452 93.0804257,41.6984925 L93.0804257,42.5728643 C93.0804257,43.7487437 94.1279546,44.7738693 95.3849893,44.7738693 C96.5522358,44.7738693 97.5698353,43.7487437 97.5698353,42.5728643 L97.5698353,16.0703518 C97.5698353,14.8944724 96.5821651,13.8994975 95.3849893,13.8994975 Z M87.154405,40.7336683 C83.8921007,40.7336683 81.2583137,38.2311558 81.2583137,34.6130653 C81.2583137,30.9949749 83.8921007,28.6130653 87.154405,28.6130653 C90.0874859,28.6130653 93.1402845,30.7236181 93.1402845,34.6130653 C93.1402845,38.4422111 90.3568505,40.7336683 87.154405,40.7336683 Z M121.034483,34.2512563 C120.854906,28.2211055 116.664791,24.4221106 111.21764,24.4221106 C105.650773,24.4221106 101.161363,28.3718593 101.161363,34.6432161 C101.161363,40.8844221 105.650773,44.9849246 111.21764,44.9849246 C114.120792,44.9849246 116.964085,43.9296482 118.939425,41.8492462 C119.68766,41.0351759 119.65773,39.7386935 118.849637,39.1055276 C117.981684,38.3819095 116.784508,38.6834171 116.096132,39.2864322 C114.659521,40.4623116 113.492275,41.2160804 111.457076,41.2160804 C108.314489,41.2160804 105.890208,39.3165829 105.471196,36.3015075 L119.089072,36.3015075 C120.106671,36.241206 121.034483,35.3969849 121.034483,34.2512563 Z M105.441267,32.9246231 C105.860278,29.9095477 108.194771,28.0703518 111.21764,28.0703518 C114.150721,28.0703518 116.365497,29.9095477 116.784508,32.9246231 L105.441267,32.9246231 L105.441267,32.9246231 Z M77.7565742,50.201005 C73.147447,54 67.341144,56.080402 61.4151233,56.080402 C56.7760667,56.080402 52.1968689,54.8140704 48.2162591,52.4623116 C48.1863297,52.4321608 48.1264709,52.4020101 48.0965415,52.4020101 C47.6476005,52.160804 47.1088714,52.1306533 46.6599304,52.281407 L36.3941471,55.2361809 L39.3272281,44.8341709 C39.4768751,44.2914573 39.3870869,43.718593 39.0877929,43.2663317 C36.7532999,39.2864322 35.5261946,34.7035176 35.5261946,30.0603015 C35.5261946,15.678392 47.1388008,3.91959799 61.4151233,3.91959799 C69.1069784,3.91959799 76.3199632,7.38693467 81.1984549,13.1155779 L75.2125755,13.1155779 C74.194976,13.1155779 73.3868822,14.0502513 73.3868822,15.0753769 C73.3868822,16.1005025 74.194976,17.0351759 75.2125755,17.0351759 L84.9097002,17.0351759 C85.9272997,17.0351759 86.7952522,16.1005025 86.7952522,15.0753769 L86.7952522,5.2160804 C86.7952522,4.19095477 86.0170879,3.37688442 84.9994884,3.37688442 C83.9818889,3.37688442 83.2037245,4.19095477 83.2037245,5.2160804 L83.2037245,9.46733668 C77.5171391,3.46733668 69.7654252,0 61.4749821,0 C45.0736724,0 31.6952318,13.4472362 31.6952318,29.9698492 C31.6952318,35.0653266 32.9522664,40.0703518 35.406477,44.5025126 L31.7251612,57.4974874 C31.5455848,58.1909548 31.7251612,58.9145729 32.2040315,59.3969849 C32.5631843,59.758794 33.071984,59.9698492 33.5807838,59.9698492 C33.7603602,59.9698492 33.9399366,59.9396985 34.1195129,59.9095477 L46.9891538,56.2311558 C51.3887752,58.7035176 56.3570552,60 61.4151233,60 C68.2390259,60 74.9132815,57.6180905 80.2107848,53.2763819 C81.0488079,52.5829146 81.1685255,51.3768844 80.4801494,50.5326633 C79.7917733,49.6582915 78.564668,49.5376884 77.7565742,50.201005 Z" id="path-1"></path>
    </defs>
    <g id="Page-1" stroke="none" stroke-width="1" fill="none" fill-rule="evenodd">
        <g id="Include.org_Logo">
            <mask id="mask-2" fill="white">
                <use xlink:href="#path-1"></use>
            </mask>
            <use id="Shape" fill="#0879B5" fill-rule="nonzero" xlink:href="#path-1"></use>
            <path d="M112.223696,38.5489259 C97.4625471,41.582168 89.3090582,35.3640218 87.1570221,23.261386 C85.0352963,11.1587502 96.1895116,5.97190633 109.192659,5.21359582 C122.195807,4.45528531 132.440711,14.3436544 134.259334,20.5011357 C136.047645,26.6586171 126.954535,35.5156839 112.223696,38.5489259 Z" id="Shape" fill="#803FC3" mask="url(#mask-2)"></path>
            <path d="M107.089907,30.3952515 C122.460773,28.2763811 130.282633,34.8120518 131.313421,46.7493499 C132.374526,58.686648 120.459832,63.1034483 107.089907,63.1034483 C93.6896651,63.1034483 84.1094017,52.8672152 82.8663928,46.7493499 C81.5930667,40.6314846 91.7190413,32.5141219 107.089907,30.3952515 Z" id="Shape" fill="#D45219" mask="url(#mask-2)"></path>
            <path d="M44.5057497,-19.0208857 C60.8596102,-22.4098671 69.1411813,-12.0029949 70.2772813,7.0412813 C71.3834839,26.0855575 58.7368971,33.1034483 44.5057497,33.1034483 C30.2746023,33.1034483 20.0795997,16.7883518 18.7342181,7.0412813 C17.3888365,-2.67579821 28.1219918,-15.6019132 44.5057497,-19.0208857 Z" id="Shape" fill="#F69516" mask="url(#mask-2)"></path>
            <path d="M1.56410796,30.2898899 C12.3670435,28.7467496 17.828196,33.4651978 18.574255,42.0414967 C19.3203141,50.6177956 10.9644524,53.7931034 1.56410796,53.7931034 C-7.83623648,53.7931034 -14.5507682,46.4335113 -15.4460391,42.0414967 C-16.3114677,37.649482 -9.2089852,31.8330302 1.56410796,30.2898899 Z" id="Shape" fill="#5FB346" mask="url(#mask-2)"></path>
            <g id="Group" transform="translate(125.172414, 24.827586)" fill-rule="nonzero" fill="#0879B5">
                <path d="M3.00184729,14.82 C4.6528633,14.82 5.97367611,16.05 5.97367611,17.67 C5.97367611,19.32 4.62284483,20.49 3.00184729,20.49 C1.41086823,20.49 0.0600369458,19.32 0.0600369458,17.67 C0.0600369458,16.02 1.41086823,14.82 3.00184729,14.82 Z" id="Shape"></path>
                <path d="M8.6453202,10.2 C8.6453202,3.99 13.2981835,0.03 18.851601,0.03 C24.4350369,0.03 29.1479372,3.99 29.1479372,10.2 C29.1479372,16.41 24.4350369,20.49 18.851601,20.49 C13.2981835,20.49 8.6453202,16.41 8.6453202,10.2 Z M24.8552956,10.2 C24.8552956,6.6 22.1236145,4.23 18.851601,4.23 C15.6096059,4.23 12.9379618,6.57 12.9379618,10.2 C12.9379618,13.89 15.6396244,16.29 18.851601,16.29 C22.1236145,16.29 24.8552956,13.89 24.8552956,10.2 Z" id="Shape"></path>
                <path d="M36.9227217,12.99 L36.9227217,18.06 C36.9227217,19.23 36.0221675,20.25 34.7613916,20.25 C33.5906712,20.25 32.7201355,19.23 32.7201355,18.06 L32.7201355,2.43 C32.7201355,1.26 33.5906712,0.24 34.7613916,0.24 C36.0221675,0.24 36.9227217,1.26 36.9227217,2.43 L36.9227217,4.95 C37.8232759,1.47 39.864532,0.03 42.2960283,0.03 C42.9264163,0.03 43.5568042,0.06 44.1571736,0.21 C45.2378387,0.45 45.958282,1.56 45.7181342,2.7 C45.3278941,4.59 43.4667488,4.14 42.2059729,4.14 C38.4836823,4.11 36.9227217,7.8 36.9227217,12.99 Z" id="Shape"></path>
                <path d="M56.1645628,25.98 C60.1570197,25.98 62.7386084,23.76 62.7386084,18.24 C62.7386084,17.91 62.7386084,17.16 62.7386084,16.8 C61.5378695,19.2 58.716133,20.46 56.0745074,20.46 C50.7912562,20.46 46.1383929,16.5 46.1383929,10.29 C46.1383929,4.02 50.7912562,-4.26325641e-14 56.0745074,-4.26325641e-14 C58.716133,-4.26325641e-14 61.5378695,1.17 62.7386084,3.33 L62.7386084,2.4 C62.7386084,1.23 63.6391626,0.21 64.809883,0.21 C66.0706589,0.21 67.03125,1.23 67.03125,2.4 L66.9712131,17.31 C66.9411946,26.37 62.7386084,30 56.1345443,30 C52.9826047,30 50.1608682,28.65 48.179649,26.22 C47.5192426,25.35 47.6393165,24.03 48.5098522,23.4 C49.4404249,22.77 50.6411638,22.98 51.3916256,23.82 C52.5623461,25.14 54.4234914,25.98 56.1645628,25.98 Z M56.554803,4.23 C53.2827894,4.23 50.5811268,6.72 50.5811268,10.29 C50.5811268,13.98 53.2827894,16.35 56.554803,16.35 C59.4966133,16.35 62.6185345,14.13 62.6185345,10.29 C62.588516,6.36 59.796798,4.23 56.554803,4.23 Z" id="Shape"></path>
            </g>
        </g>
    </g>
</svg>